<?xml version="1.0" standalone="no"?>
<!DOCTYPE svg PUBLIC "-//W3C//DTD SVG 20010904//EN"
 "http://www.w3.org/TR/2001/REC-SVG-20010904/DTD/svg10.dtd">
<svg version="1.0" xmlns="http://www.w3.org/2000/svg"
 width="700.000000pt" height="700.000000pt" viewBox="0 0 700.000000 700.000000"
 preserveAspectRatio="xMidYMid meet">
<metadata>
Created by potrace 1.14, written by Peter Selinger 2001-2017
</metadata>
<g transform="translate(0.000000,700.000000) scale(0.100000,-0.100000)"
fill="#000000" stroke="none">
<path d="M1325 6993 c-80 -7 -252 -46 -335 -75 -219 -77 -387 -183 -561 -357
-210 -210 -334 -441 -401 -744 l-23 -102 0 -2215 0 -2215 23 -102 c67 -306
192 -535 406 -748 220 -219 445 -340 758 -408 l103 -22 2210 0 2210 0 102 23
c303 67 536 193 748 406 215 215 340 447 407 749 l23 102 0 2215 0 2215 -23
102 c-67 304 -191 533 -407 749 -214 215 -434 334 -747 407 l-93 21 -2180 2
c-1199 0 -2198 -1 -2220 -3z m2254 -1360 c-8 -10 -32 -40 -55 -68 -117 -141
-254 -393 -313 -575 -65 -200 -90 -352 -95 -564 l-3 -134 -41 -48 c-96 -109
-142 -238 -142 -400 l0 -93 152 -3 151 -3 13 -37 c22 -65 112 -237 170 -327
149 -229 353 -428 594 -578 303 -188 682 -286 1050 -269 80 3 157 9 173 12
l27 6 -2 -378 -3 -379 -610 0 -610 0 -3 368 -2 367 -550 0 -550 0 0 -370 0
-370 -610 0 -610 0 0 1129 c0 1086 1 1134 20 1248 120 703 630 1257 1322 1434
133 33 244 47 397 48 135 1 143 0 130 -16z m500 -109 c277 -72 528 -217 732
-423 125 -127 216 -256 294 -416 71 -143 94 -209 133 -365 l26 -105 3 -702 4
-703 -98 0 c-524 1 -1016 248 -1345 676 -48 62 -118 173 -118 187 0 4 158 7
350 7 l350 0 0 173 c0 191 -10 269 -45 370 -36 105 -82 174 -180 272 -73 74
-106 98 -175 132 -144 71 -295 96 -435 75 -38 -6 -71 -10 -73 -7 -9 8 42 238
74 335 58 174 125 305 242 469 l45 63 60 -7 c33 -3 103 -18 156 -31z"/>
</g>
</svg>
